<?xml version="1.0" encoding="utf-8"?>
<!-- Uploaded to: SVG Repo, www.svgrepo.com, Generator: SVG Repo Mixer Tools -->
<svg fill="#000000" version="1.1" id="Layer_1" xmlns="http://www.w3.org/2000/svg" xmlns:xlink="http://www.w3.org/1999/xlink" 
	 width="800px" height="800px" viewBox="0 0 208 256" enable-background="new 0 0 208 256" xml:space="preserve">
<path d="M2,34c0,0,0,185.486,0,187c0,17.87,14.416,32.192,32.084,32.899V254H205.82v-9.288c-13.226,0-23.928-10.702-23.928-23.928
	s10.702-23.928,23.928-23.928v-0.202V2H35.8C17.526,2,2,15.726,2,34z M172.603,220.683c0,9.389,4.038,17.87,10.298,23.928H35.397
	c-13.226,0.101-24.029-10.702-24.029-23.928c0-12.519,9.793-22.817,22.111-23.726l149.726-0.303
	C176.743,202.712,172.603,211.192,172.603,220.683z M57.083,68.051l12.596-3.231l-3.56-12.486c-0.986-3.614,2.41-6.955,5.969-5.969
	l12.486,3.56l3.231-12.596c0.876-3.614,5.586-4.819,8.105-2.136l9.036,9.31l9.036-9.31c2.574-2.738,7.229-1.424,8.105,2.136
	l3.231,12.596l12.486-3.56c3.614-0.986,6.955,2.41,5.969,5.969l-3.56,12.486l12.596,3.231c3.614,0.876,4.874,5.476,2.136,8.105
	l-9.255,9.036l9.2,9.036c2.738,2.629,1.479,7.229-2.136,8.105l-12.596,3.231l3.56,12.486c0.986,3.614-2.41,6.955-5.969,5.969
	l-12.267-3.505l17.524,34.884l-14.622-4.162l-4.052,13.526L104.946,126.1L85.56,164.762l-4.052-13.526l-14.622,4.162l17.524-34.884
	l-12.267,3.505c-3.614,0.986-6.955-2.41-5.969-5.969l3.56-12.486l-12.596-3.231c-3.614-0.876-4.874-5.476-2.136-8.105l9.2-9.036
	l-9.255-9.036C52.209,73.527,53.469,68.927,57.083,68.051z M106.041,115.53c16.758,0,30.284-13.581,30.284-30.339
	c0-16.757-13.636-30.284-30.284-30.284c-16.758,0-30.284,13.581-30.284,30.339C75.757,102.004,89.283,115.53,106.041,115.53z
	 M89.283,82.563c1.643-1.479,4.107-1.424,5.696,0.164l6.736,7.283l15.005-20.7c1.314-1.753,3.779-2.245,5.64-0.931
	c1.753,1.259,2.19,3.833,0.876,5.586l-20.81,28.751L89.119,88.259C87.641,86.616,87.695,84.151,89.283,82.563z"/>
</svg>